<?xml version="1.0" encoding="UTF-8" standalone="no"?>
<!-- Generator: Adobe Illustrator 23.0.3, SVG Export Plug-In . SVG Version: 6.00 Build 0)  -->

<svg
   xmlns:dc="http://purl.org/dc/elements/1.1/"
   xmlns:cc="http://creativecommons.org/ns#"
   xmlns:rdf="http://www.w3.org/1999/02/22-rdf-syntax-ns#"
   xmlns:svg="http://www.w3.org/2000/svg"
   xmlns="http://www.w3.org/2000/svg"
   xmlns:sodipodi="http://sodipodi.sourceforge.net/DTD/sodipodi-0.dtd"
   xmlns:inkscape="http://www.inkscape.org/namespaces/inkscape"
   version="1.1"
   id="Layer_1"
   x="0px"
   y="0px"
   viewBox="0 0 500 500"
   style="enable-background:new 0 0 500 500;"
   xml:space="preserve"
   sodipodi:docname="logo.svg"
   inkscape:version="0.92.5 (2060ec1f9f, 2020-04-08)"
   inkscape:export-filename="/home/gjc216/bitmap.png"
   inkscape:export-xdpi="80.82"
   inkscape:export-ydpi="80.82"><metadata
   id="metadata958"><rdf:RDF><cc:Work
       rdf:about=""><dc:format>image/svg+xml</dc:format><dc:type
         rdf:resource="http://purl.org/dc/dcmitype/StillImage" /><dc:title></dc:title></cc:Work></rdf:RDF></metadata><defs
   id="defs956" /><sodipodi:namedview
   pagecolor="#ffffff"
   bordercolor="#666666"
   borderopacity="1"
   objecttolerance="10"
   gridtolerance="10"
   guidetolerance="10"
   inkscape:pageopacity="0"
   inkscape:pageshadow="2"
   inkscape:window-width="1362"
   inkscape:window-height="729"
   id="namedview954"
   showgrid="false"
   inkscape:zoom="0.407"
   inkscape:cx="147.26307"
   inkscape:cy="311.58189"
   inkscape:window-x="0"
   inkscape:window-y="18"
   inkscape:window-maximized="0"
   inkscape:current-layer="g1169"
   showguides="true"
   inkscape:guide-bbox="true" />

<g
   id="g1144"
   transform="translate(542.99754,255.52825)"><g
     id="g1169"
     transform="translate(1.47419,1.932212)"><g
       id="g4918"
       transform="matrix(1.1968742,0,0,1.1968742,59.473214,-1.3070949)"><ellipse
         ry="197.33153"
         rx="198.61705"
         cy="-6.4413543"
         cx="-294.93491"
         id="path975"
         style="fill:#ffffff;fill-opacity:1;stroke:#000000;stroke-width:3.49790025;stroke-linecap:round;stroke-linejoin:miter;stroke-miterlimit:4;stroke-dasharray:none;stroke-dashoffset:0;stroke-opacity:1;paint-order:markers fill stroke" /><path
         style="fill:#b7b7b7;fill-opacity:1;stroke:none;stroke-width:1px;stroke-linecap:butt;stroke-linejoin:miter;stroke-opacity:1"
         d="m -339.9061,-93.836292 c -7.77197,16.3628 5.22478,39.45017 -3.23582,52.44551 -0.43276,-14.75403 1.00079,-37.00164 -19.11654,-38.7706 -20.81388,-2.89278 -23.61966,27.47178 -43.42642,28.46284 -11.9428,0.43162 -6.94753,-5.23445 1.39244,-3.9987 18.29965,0.42427 17.36922,-22.15038 3.06751,-28.53072 -6.89255,-7.59401 -0.92373,-9.63296 2.46056,-0.55887 3.66006,15.78574 25.53178,13.34045 25.54415,-2.59518 1.09094,-6.74181 4.04114,-15.048828 2.96577,-3.61836 2.12152,11.18261 16.6832,12.80742 24.89339,12.56763 10.95705,-15.59535 -9.11227,-23.437698 -17.68974,-31.666418 8.10669,7.92243 29.33263,18.251618 31.67441,-0.83407 -10.1079,-12.26913 -33.61059,-4.1977 -49.08016,-5.20611 -9.27821,2.54363 -5.93627,16.538688 -18.20275,11.27627 -20.27138,2.12175 -25.24079,23.509898 -32.77363,38.555198 1.57261,-4.85417 -7.6014,-14.44483 -14.39984,-4.91664 -12.97366,5.71047 -12.78607,34.25652 4.75275,25.64348 4.10275,-12.48632 -3.03576,11.3401 -6.0418,15.28643 -11.52696,17.2448 22.69957,38.1935099 21.53375,11.68885 -0.15864,-4.74907 -6.13069,-28.91248 1.2998,-16.30485 -0.6834,15.05424 -6.72989,38.6353799 16.07313,39.8699199 18.89931,4.2551 32.47099,-19.2105399 11.58413,-27.4168999 -5.32632,-3.16278 -22.59685,-14.68743 -17.27359,-15.66294 15.96011,6.3298 25.21901,31.8404099 44.91371,25.47171 15.64943,-13.50206 2.6673,-36.50168 0.29092,-53.26384 12.67719,3.96817 2.97555,31.98969 11.73216,43.38665 11.61639,9.06375 31.27651,7.06091 41.59468,-2.74483 4.65039,-6.00461 -9.54093,-29.71431 0.29323,-18.93329 0.42065,14.89278 15.41523,25.74942 26.29795,11.8282 4.09867,-6.05528 14.64928,-24.04675 9.83435,-7.03011 -5.3302,6.53781 -5.96554,14.62469 4.83816,9.83183 18.81602,2.70664 33.54449,-7.34924 42.22579,-22.90496 14.77984,-3.54788 -11.91567,17.12927 -15.27675,22.22638 -4.19793,9.31596 18.37511,5.98255 2.75413,9.59275 -14.18655,-6.14813 -30.44907,-10.02116 -46.32075,-3.26808 -7.02743,-0.32392 -19.50551,3.05487 -24.39756,10.07795 -6.25936,8.9860199 -4.20866,21.8835899 -6.45929,18.6107499 -2.03206,-6.35353 -1.25956,-13.32217 2.05836,-17.9404699 5.01535,-6.98098 13.47898,-9.97282 8.08106,-8.3085 -21.69157,12.9284399 -49.43453,1.58791 -63.92595,14.6976199 -15.23579,8.20889 -34.42989,23.4054301 -24.31669,42.8918601 3.63481,14.40554 6.15882,26.35883 37.77433,26.89772 4.00903,-1.09541 -5.05526,-2.49555 -7.56591,-8.04761 -0.82321,-1.82046 -2.11199,-2.23078 -1.31284,-5.59117 1.89107,-7.95181 7.70415,-19.70894 3.13115,-14.2659 -3.46862,10.50758 -19.19977,25.09273 -5.18538,4.06011 10.28784,-8.68144 0.58895,-19.29562 -10.46923,-21.0375 -4.08842,-7.70747 11.00393,4.95569 10.50193,-1.02697 5.23723,14.65839 24.20288,13.96694 35.64343,5.72065 7.50151,-5.43812 -0.48807,-18.2988001 7.6938,-5.65138 13.97088,11.66534 35.70864,1.40836 40.67504,-14.7773201 1.79856,-8.42695 14.68593,-15.4894599 3.80324,-3.39572 -7.55895,7.63796 -6.50969,19.0982301 6.35431,15.6191501 10.79982,0.2358 23.69067,-3.88204 29.01474,-10.7969601 -4.12384,19.2918301 21.51381,17.1378101 29.36681,4.16674 18.70375,-11.76877 33.28744,-30.2984299 39.5155,-51.5793999 -2.48326,-6.46744 -11.25572,-21.93135 0.25251,-9.44956 5.73611,11.03562 -7.89514,29.36735 8.10307,33.9868 -7.65804,-2.12386 -17.97724,-5.68138 -19.06878,7.26243 -6.94842,16.0955699 -37.80051,17.3669699 -33.88317,37.60634 1.76184,8.00011 -9.09848,-8.20744 -16.22266,-5.31303 -8.01036,-1.68026 -18.63271,-4.04771 -11.76513,7.17672 -6.68717,-7.71397 -13.12688,-13.27575 -24.90077,-10.96228 -15.46529,-4.47366 -26.64266,10.91812 -41.75722,8.09635 -14.7554,-3.52713 -27.4019,8.49361 -42.34968,7.44212 -5.91197,6.98369 -7.15253,18.39302 -2.26465,24.66585 5.76399,7.39718 19.65199,7.08756 23.45231,13.81316 3.89649,5.25306 -7.63956,-5.46016 -22.16959,-5.29844 -31.09172,-1.03001 19.2333,10.51239 26.8592,10.74309 22.94005,-0.17466 44.05448,-10.39615 67.16996,-8.67064 25.48228,0.41622 50.42453,6.72831 75.96494,6.70142 8.40923,-0.51776 31.64366,6.74238 18.20295,-7.64955 -5.79774,-12.45752 -24.69176,-16.13759 -30.84263,-8.67374 3.38561,12.1891 -3.1811,11.92786 -4.22893,0.74527 -11.12247,-9.16996 -27.42068,-6.35378 -40.96151,-7.45858 -14.72257,0.89837 -25.53994,-4.09117 -31.19762,0.55181 -7.08877,5.8174 -11.16509,4.87742 -19.72496,4.66624 -4.11909,-0.36754 -9.04349,-1.58162 -14.74213,-0.56808 -8.61397,1.53205 -18.02036,5.36355 -21.34126,2.76735 4.25903,-2.17749 7.19514,-0.45926 11.4663,-2.71716 7.67594,-4.05778 16.3958,-3.43009 31.17687,-1.92017 5.62231,0.57434 8.75383,-3.63047 13.2273,-5.82284 12.27801,-1.91043 33.05968,0.77482 50.84112,1.32189 15.82635,2.74266 34.00559,7.55049 48.10015,-3.05684 5.65573,-4.39316 19.21587,-7.58505 6.75269,-0.82131 -19.23976,9.28384 10.59736,15.41971 8.84922,30.80257 3.40761,3.38725 16.1432,0.8213 17.68075,-6.37781 0.44992,-2.10662 0.14173,-11.19983 1.26902,-13.2454 4.53649,-4.2821 8.71288,-38.35994 -9.10155,-32.70503 -4.42632,4.30563 0.19463,32.33574 -4.75755,27.0783 0.45125,-11.29328 4.94293,-47.2274201 -13.16436,-41.05271 -9.24636,9.61534 -14.77517,24.46144 -28.5612,28.54353 9.77385,-13.84191 21.84625,-26.44772 34.39253,-37.5993001 14.64888,-8.50747 11.79541,-20.8510099 8.42049,-34.4647199 -1.04677,-4.22244 -1.17217,-10.23255 -2.08356,-14.1583 0.0165,-3.16847 -2.26473,-7.52851 -3.34579,-10.49169 -4.96927,-13.62086 -18.58211,-22.45607 -32.60949,-16.19863 -4.51725,5.51419 -10.69895,9.33608 -4.29797,0.1713 6.33372,-14.35192 -18.51924,-16.99891 -20.84626,-29.684838 13.70163,3.48444 19.70042,21.404118 30.11177,25.807738 7.7181,-2.11792 15.49848,-0.0828 20.04321,4.22515 6.66834,6.3209 9.20334,17.35781 17.62397,25.89392 10.20747,15.89787 30.56481,30.17887 26.35986,51.2109699 -0.34568,10.9182101 7.37173,12.9248901 4.63003,0.98256 -0.0505,-13.80503 -6.91698,-25.2343099 -12.63196,-37.1859999 -3.96254,-6.32826 -11.05929,-11.79633 -14.67146,-18.14774 -4.02924,-7.08478 -4.51044,-15.08111 -7.65843,-22.74195 -10.37826,-8.41697 -19.09138,-18.22375 -26.59446,-29.226868 -13.51166,-14.85569 -33.90384,-20.49629 -52.40592,-26.47949 -14.22834,-3.49182 -30.97571,-7.29799 -44.53351,0.26965 -3.50448,2.52091 -4.89192,6.95796 -3.7402,8.62142 2.06568,2.98349 6.74329,-1.44551 11.21393,-5.41231 7.28325,-1.37288 12.78684,-1.58233 11.76483,-0.58581 -0.82239,0.80187 -6.98009,2.61426 -11.36656,3.47741 -4.00089,1.00738 -7.75706,5.70831 -5.77815,6.04758 6.92712,1.18763 10.47408,1.41379 20.17051,6.36156 6.34709,4.01958 6.80411,-12.60292 12.12386,-14.18979 10.85857,-3.23908 25.47351,3.75997 35.18065,8.00873 16.81596,2.35353 20.06711,18.958858 32.36409,27.133178 7.52342,6.47727 26.74661,27.04116 23.25677,30.25759 -12.51354,-14.01876 -26.49228,-36.12394 -46.63246,-39.44197 -13.28032,-5.646938 -26.58465,-14.643278 -41.80287,-10.296208 -11.9217,0.25487 -16.97257,9.613998 -22.77007,18.468208 m 0,0 c -0.74707,0.63465 -0.85897,4.0374 -3.53194,4.45332 -0.86321,1.53712 -3.88831,1.23387 -1.68919,3.07125 2.47514,3.4414 3.13648,7.57502 0.30713,10.74939 -1.38838,2.19743 -1.86225,6.06 -4.60688,6.75676 -2.22625,-2.81503 0.34607,-7.09776 1.2285,-10.13514 1.50401,-3.24731 1.21223,-7.48145 -1.84275,-9.82801 -2.13181,-3.093 -6.70897,-4.05506 -8.90663,-7.37101 2.57819,-2.87226 6.20128,0.9352 8.5995,2.45701 2.32026,0.45839 5.20142,4.24878 5.83538,0.46068 2.75767,-1.46577 5.32753,-3.60679 6.14251,-6.60319 2.59602,-3.341518 7.75616,-7.844658 4.60688,-12.285008 -2.88291,-2.76225 -6.94528,-5.33628 -10.90295,-4.1462 -5.7243,4.20479 -12.06405,6.00335 -17.81327,10.44226 -2.72485,0.8758 -4.85425,2.1323 -6.60319,4.299758 -2.83658,2.37532 -4.40661,6.65912 -6.29607,9.0602 0.33875,5.86739 -3.05791,10.55605 -1.53563,16.4312 -0.5137,4.57915 4.56891,8.67692 3.07126,12.7457 -0.64503,-1.15673 -4.22824,-1.5459 -3.83907,-3.83906 -2.59549,-0.18681 -5.21807,-0.70346 -5.06757,-3.53195 1.04298,-2.59661 -3.67061,-5.78645 -1.2285,-8.13882 1.98934,0.0391 3.68941,5.06824 4.29976,1.38207 -1.1974,-8.40733 -13.0332,-7.73896 -13.9742,-13.20639 5.27275,-1.06087 6.94452,6.32261 12.2741,3.89176 -4.05757,-2.67615 -5.08242,-5.43618 -7.68586,-9.21056 -3.87098,-1.97494 -0.0423,-4.15243 1.2285,-1.29211 2.01539,3.47569 5.99903,5.97481 8.00389,8.76079 0.07,-4.1506 4.83163,-6.72579 4.74181,-10.98519 0.75513,-3.5116 4.55547,-4.473428 7.47189,-6.176568 2.78446,-2.13904 4.61602,-7.59972 2.52832,-10.47952 -3.04427,-2.15029 -6.41733,-4.46547 -9.67445,-6.6032 -0.26761,-2.74105 -7.14803,-1.57888 -4.29975,-4.14619 5.88357,-0.95266 9.38776,4.76207 13.35995,7.98526 2.77591,0.83462 4.47352,3.70336 5.06757,5.98894 0.34498,-2.87876 6.5104,-5.08239 2.76412,-7.98526 -3.1085,-4.03779 -3.63798,-9.24375 -8.29238,-12.59213 -4.91129,-4.77537 -12.32319,-6.01963 -19.04177,-4.76045 -2.17788,2.33287 -4.88445,3.76707 -7.52457,4.60688 -0.66556,2.47059 -1.3488,5.31836 1.84275,2.45701 3.51373,-0.8865 5.41483,-4.58567 9.21376,-4.91401 2.24684,-1.60456 3.66259,1.80223 0.46069,1.84275 -3.72899,1.82005 -7.25315,3.80744 -10.44226,6.75676 -2.20716,2.86128 -4.64206,6.3429 -3.37838,10.13514 2.69079,-1.15712 5.92317,-3.55478 8.59951,-2.14988 -0.73248,3.42303 -4.91498,3.43948 -7.06388,5.83538 -4.53779,0.93437 -5.64195,6.34347 -8.59951,9.0602 -2.20544,2.890368 -5.35668,4.619918 -7.21745,7.678128 m 207.61671,148.80221 c 6.63244,-13.70164 8.57277,-30.91426 1.23002,-44.7074 -3.32034,16.71936 -2.51606,-10.2794101 -0.96266,-15.5804801 1.71768,-6.8994999 -7.25992,-21.1143099 -7.10683,-6.1835499 -1.03397,4.9883099 -4.03225,24.95089 -5.5114,10.5037899 8.04799,-15.6143099 -2.46105,-29.0716099 -12.0363,-40.5587399 -9.13724,-11.38793 -0.80669,14.22479 0.547,19.4242 7.41945,16.4500499 -21.873,21.9275099 -6.00079,35.54182 2.0328,13.15242 23.49229,2.16239 26.61938,6.88847 -16.6445,-0.0763 -4.20442,15.82378 -4.59842,25.68239 3.96474,-5.55222 16.28463,-22.6826 7.47159,-6.95217 -7.2196,5.81114 -4.43995,10.39278 0.34841,15.94167 z m -2.59954,4.14563 c 0.77928,-18.22884 -16.18351,-2.73673 -11.61983,7.92834 -3.98536,14.25421 11.65711,-5.27325 11.61983,-7.92834 z m -149.82526,12.12099 c 33.74161,0.46067 55.60682,4.16521 84.689,4.73345 9.00295,3.35514 39.0733,-1.43432 25.9781,15.41917 -5.92831,19.676362 -28.07697,28.845472 -47.16833,28.682352 -19.44829,3.34961 -38.91385,-4.06126 -53.72555,-16.51531 -3.35977,-9.761962 -5.16074,-15.858322 -12.19345,-29.362882 -0.44502,-0.85454 -0.91713,-3.27253 2.42023,-2.95678 z m -19.94928,2.31447 c 20.14736,-5.65654 20.44091,14.72413 24.70687,24.37688 2.50534,14.405492 25.41977,13.729842 26.55063,27.913492 -15.94525,6.14865 -23.31348,-6.57756 -28.05325,-19.51731 -5.02879,-13.028482 -19.49179,-19.363452 -23.20425,-32.773062 z m -144.94761,-109.42967 c -4.89125,11.86553 0.32147,27.8311099 12.56549,33.5426099 15.68882,2.9209 -1.48763,4.44157 -6.88225,5.94807 6.53334,7.9878201 18.43847,-9.62718 32.83303,6.6863501 -3.10216,3.57013 -12.07532,10.04271 -1.06109,5.7565 11.6715,-10.1814901 9.92445,20.90684 -2.83119,7.75511 -14.92943,-3.74133 -31.78425,-12.72987 -34.49072,-29.3922601 -7.863,-10.7722499 -19.95797,-28.8539799 -5.09092,-38.3585399 2.70131,1.45115 8.53461,4.34672 4.95765,8.06216 z m -6.67687,-10.35692 c -10.93616,4.80367 -0.33368,-18.3579 2.85104,-23.09146 5.73184,-16.37815 22.94445,-23.9563 35.9147,-32.851178 9.77697,-13.02489 26.88233,-16.63613 39.62896,-26.39207 14.54184,-5.92407 31.98704,-7.13233 46.85778,-3.55278 10.35033,4.44163 4.24726,20.65893 -5.56131,11.8982 -10.17289,-0.59249 -30.98955,4.18585 -28.98102,-6.90559 -2.31753,12.48562 -21.94769,3.53649 -27.34891,16.98554 -16.00144,0.25552 -26.7571,13.615048 -34.26339,25.990878 -7.07997,9.67722 -26.23357,7.82972 -29.01148,24.16611 -2.71846,4.34352 -1.70705,9.26225 -0.0864,13.75235 z m 154.49076,-91.415838 c 6.03337,-2.90126 27.33365,-1.01935 24.06562,3.03235 -7.96533,4.46253 -13.83258,11.4436 -19.59909,0.32127 -1.49145,-1.08175 -3.45334,-1.70025 -4.46653,-3.35362 z m -33.1949,1.5894 c 7.08151,0.61051 10.59365,8.37316 16.0762,-0.22957 10.2722,-3.8048 -15.004,-0.86932 -16.0762,0.22957 z m -92.75184,37.776418 c 4.6176,-5.227688 19.62011,-18.835558 20.95795,-16.620818 -7.44628,4.73749 -12.82766,13.5495 -20.95795,16.620818 z"
         id="path1118"
         inkscape:connector-curvature="0"
         sodipodi:nodetypes="cccccccccccccccccccccccccccccccccccscsccccsscccccccccccccccccccccscccccccccscscsscccccsccccccscsccccsccccsccccscscscscccccccccccccccccccccccccccccccccccccccccccccccccccccccccccccccccccccccccsccccccccccccccccccccccccccccccccccccc" /><g
         transform="translate(1.0588,-0.1973821)"
         style="fill:#b7b7b7;fill-opacity:1;stroke:none"
         id="g1093"><path
           style="fill:#b7b7b7;fill-opacity:1;stroke:none;stroke-width:1px;stroke-linecap:butt;stroke-linejoin:miter;stroke-opacity:1"
           d="m -244.62152,-123.62747 c -3.58553,0.61005 -6.44968,3.49727 -7.93453,6.69324 -0.84462,2.30698 -7.02644,9.09201 2.70967,6.26577 7.74978,-2.35203 16.46299,-1.57698 23.87634,-0.02 9.14199,3.50151 12.8434,9.07121 22.60523,10.64118 4.06481,1.194888 5.23739,1.776978 6.70961,0.594993 0.13792,-3.218683 -4.83672,-5.944173 -7.04281,-7.440993 -11.47729,-7.17871 -29.09375,-14.90608 -40.92351,-16.73421 z"
           id="path900"
           inkscape:connector-curvature="0"
           sodipodi:nodetypes="cccccccc" /><path
           style="fill:#b7b7b7;fill-opacity:1;stroke:none;stroke-width:1px;stroke-linecap:butt;stroke-linejoin:miter;stroke-opacity:1"
           d="m -285.70331,-113.40602 c -2.55241,0.91221 -1.88693,4.03598 -4.47958,5.02979 -2.0754,0.65569 -1.93642,3.54634 0.35395,1.8296 3.60007,-1.90208 6.77568,-4.60942 10.66202,-5.94037 1.94103,-2.15815 -2.50369,-1.5403 -3.76009,-1.52045 -1.18167,-0.0175 -1.97849,-0.61537 -2.7763,0.60143 z"
           id="path912"
           inkscape:connector-curvature="0"
           sodipodi:nodetypes="cccccc" /><path
           style="fill:#b7b7b7;fill-opacity:1;stroke:none;stroke-width:1px;stroke-linecap:butt;stroke-linejoin:miter;stroke-opacity:1"
           d="m -402.70575,12.285809 c 2.22912,-3.5670021 -1.0765,-3.9730472 -5.97443,-4.1743597 -5.44968,-1.4018049 3.50606,5.7019917 5.97443,4.1743597 z"
           id="path927"
           inkscape:connector-curvature="0"
           sodipodi:nodetypes="ccc" /></g><path
         style="fill:#ffffff;fill-opacity:1;stroke:none;stroke-width:1px;stroke-linecap:butt;stroke-linejoin:miter;stroke-opacity:1"
         d="m -334.00805,44.810872 c -0.85999,3.378216 3.76423,2.96344 5.84155,3.607201 1.84006,0.598755 3.49603,-1.36115 1.32768,-2.457081 -1.6529,-1.71382 -5.81418,-3.670453 -7.51906,-1.937243 l 0.12606,0.423941 0.22376,0.363182 z"
         id="path996"
         inkscape:connector-curvature="0" /><path
         inkscape:connector-curvature="0"
         id="path949"
         d="m -284.71038,31.997819 c -1.5383,-1.153389 -2.07834,-3.164935 -2.0576,-5.007986 0.0246,-0.949859 0.0376,-1.925973 0.33409,-2.833768 0.20915,-0.833251 -0.43263,-1.916178 -1.3661,-1.787673 -0.75769,0.201254 -0.87042,1.133138 -0.80283,1.7924 0.0607,1.968045 -0.43165,3.923465 -0.20981,5.890989 0.76021,1.568519 2.1844,2.859618 2.35956,4.674555 0.0115,0.664102 0.0281,1.374002 0.48707,1.909256 0.71256,0.928544 1.99869,1.590655 3.16851,1.214083 0.92268,-0.33898 1.14961,-1.455195 1.08606,-2.329607 -0.16019,-1.346589 -1.33728,-2.213272 -2.32806,-2.987646 -0.22589,-0.175328 -0.45199,-0.350552 -0.67089,-0.534603 z"
         style="fill:#ffffff;fill-opacity:1;stroke:none;stroke-width:1px;stroke-linecap:butt;stroke-linejoin:miter;stroke-opacity:1" /><path
         sodipodi:nodetypes="ccccccccccccccccccccscc"
         inkscape:connector-curvature="0"
         id="path961"
         d="m -200.01393,-41.188601 c -4.22955,2.534081 -5.48847,-6.255043 -0.62907,-5.028169 2.41038,-0.34279 6.94132,-1.371091 6.11397,-4.595606 -3.58095,-3.316737 -6.3135,4.4242 -9.83267,2.83561 -1.85541,-2.756656 -0.54898,-8.681667 -3.00107,-11.46145 -1.98888,-3.812626 -2.86556,-4.954281 -4.63605,-8.893616 -1.81394,-3.244696 -4.68583,-6.667116 -8.7193,-6.721428 -5.0598,-1.62441 -10.7039,-3.407405 -15.92185,-1.483637 -3.25766,1.86443 -4.8374,5.716879 -8.2814,7.329058 -0.0365,2.236435 -5.27062,2.533787 -2.13848,0.205389 4.57271,-4.01669 4.67704,-10.733427 4.20778,-16.335316 0.61384,-2.420784 2.47547,-6.523565 4.73916,-8.375088 -1.35544,-2.40367 -6.43549,4.638039 -7.16728,6.011553 -2.34544,4.91111 -1.18487,8.7122 -1.72766,13.979174 -0.57812,3.833801 -1.99658,8.123693 -5.69328,10.000038 -2.40985,-0.699087 -5.75293,4.722487 -1.61488,3.353077 3.26953,-1.888699 6.34964,-4.088094 9.62397,-5.968957 4.41668,-2.886426 8.56183,-6.995056 14.03783,-7.573409 3.67838,-0.131497 4.94762,0.780875 8.40779,1.935945 3.51635,1.640958 6.74785,4.161399 7.64805,7.584305 1.54445,2.262496 6.66602,7.393586 6.6455,11.306417 -0.048,9.157385 2.57092,19.010703 9.16883,14.17879 0.0541,-0.912184 -0.49306,-1.782768 -1.22989,-2.28268 z"
         style="fill:#ffffff;fill-opacity:1;stroke:none;stroke-width:1px;stroke-linecap:butt;stroke-linejoin:miter;stroke-opacity:1" /><path
         inkscape:connector-curvature="0"
         id="path969"
         d="m -323.58387,8.7605879 c -0.91025,0.1790869 -1.91928,-0.3318768 -2.76178,0.180891 -0.40163,0.532296 -0.38779,1.3413251 -0.23605,1.9593761 0.32045,0.79085 1.20743,1.074904 1.59334,1.811256 0.8545,0.925707 2.09049,1.624227 3.38128,1.539021 0.78796,0.02467 1.08064,-0.798833 0.90232,-1.447347 -0.0139,-0.818339 -0.26547,-1.69773 -0.98311,-2.171909 -0.62977,-0.621904 -0.96704,-1.6149768 -1.896,-1.8712881 z"
         style="fill:#ffffff;fill-opacity:1;stroke:none;stroke-width:1px;stroke-linecap:butt;stroke-linejoin:miter;stroke-opacity:1" /><path
         sodipodi:nodetypes="ccccccccc"
         inkscape:connector-curvature="0"
         id="path981"
         d="m -374.40174,54.583539 c -1.15661,0.235209 -2.20721,-0.514025 -2.96833,-1.302092 -0.9869,-0.954286 -1.74708,-2.193055 -2.9846,-2.854449 -0.83716,-0.46297 -1.83802,-0.08956 -2.48107,0.525227 0.0391,0.601368 0.70413,1.280253 1.04142,1.87383 1.79955,2.514821 2.57106,2.622489 5.42397,3.901715 1.30627,0.569535 4.28711,3.039815 5.70715,2.806882 0.83776,-0.793858 0.79104,-2.135187 0.19966,-3.05726 -0.77478,-1.295385 -2.38732,-2.381972 -3.9382,-1.893853 z"
         style="fill:#ffffff;fill-opacity:1;stroke:none;stroke-width:1px;stroke-linecap:butt;stroke-linejoin:miter;stroke-opacity:1" /><text
         id="text1115"
         y="-38.507729"
         x="-403.86526"
         style="font-style:normal;font-variant:normal;font-weight:300;font-stretch:normal;font-size:77.33333588px;line-height:1.25;font-family:'URW Bookman';-inkscape-font-specification:'URW Bookman, Light';font-variant-ligatures:normal;font-variant-caps:normal;font-variant-numeric:normal;font-feature-settings:normal;text-align:start;letter-spacing:0px;word-spacing:0px;writing-mode:lr-tb;text-anchor:start;fill:#000000;fill-opacity:1;stroke:none;stroke-width:1.20718122"
         xml:space="preserve"><tspan
           style="font-style:normal;font-variant:normal;font-weight:300;font-stretch:normal;font-size:77.33333588px;font-family:'URW Bookman';-inkscape-font-specification:'URW Bookman, Light';font-variant-ligatures:normal;font-variant-caps:normal;font-variant-numeric:normal;font-feature-settings:normal;text-align:start;writing-mode:lr-tb;text-anchor:start;stroke-width:1.20718122"
           y="-38.507729"
           x="-403.86526"
           id="tspan1113"
           sodipodi:role="line">NEW</tspan></text>
<text
         id="text1119"
         y="41.068027"
         x="-348.79361"
         style="font-style:normal;font-variant:normal;font-weight:300;font-stretch:normal;font-size:77.33333588px;line-height:1.25;font-family:'URW Bookman';-inkscape-font-specification:'URW Bookman, Light';font-variant-ligatures:normal;font-variant-caps:normal;font-variant-numeric:normal;font-feature-settings:normal;text-align:start;letter-spacing:0px;word-spacing:0px;writing-mode:lr-tb;text-anchor:start;fill:#000000;fill-opacity:1;stroke:none"
         xml:space="preserve"><tspan
           y="41.068027"
           x="-348.79361"
           id="tspan1117"
           sodipodi:role="line">C</tspan></text>
<text
         id="text1123"
         y="61.916367"
         x="-264.53146"
         style="font-style:normal;font-variant:normal;font-weight:300;font-stretch:normal;font-size:77.33333588px;line-height:1.25;font-family:'URW Bookman';-inkscape-font-specification:'URW Bookman, Light';font-variant-ligatures:normal;font-variant-caps:normal;font-variant-numeric:normal;font-feature-settings:normal;text-align:start;letter-spacing:0px;word-spacing:0px;writing-mode:lr-tb;text-anchor:start;fill:#000000;fill-opacity:1;stroke:none"
         xml:space="preserve"><tspan
           y="61.916367"
           x="-264.53146"
           id="tspan1121"
           sodipodi:role="line">L</tspan></text>
</g></g></g></svg>